<svg id="visual" viewBox="0 0 900 600" width="900" height="600" xmlns="http://www.w3.org/2000/svg" xmlns:xlink="http://www.w3.org/1999/xlink" version="1.1"><rect width="900" height="600" fill="#001122"></rect><g><g transform="translate(110 192)"><path d="M0 -94.6L81.9 -47.3L81.9 47.3L0 94.6L-81.9 47.3L-81.9 -47.3Z" fill="none" stroke="#FBAE3C" stroke-width="2"></path></g><g transform="translate(394 288)"><path d="M0 -70L60.6 -35L60.6 35L0 70L-60.6 35L-60.6 -35Z" fill="none" stroke="#FBAE3C" stroke-width="2"></path></g><g transform="translate(822 140)"><path d="M0 -87L75.3 -43.5L75.3 43.5L0 87L-75.3 43.5L-75.3 -43.5Z" stroke="#FBAE3C" fill="none" stroke-width="2"></path></g><g transform="translate(568 154)"><path d="M0 -67L58 -33.5L58 33.5L0 67L-58 33.5L-58 -33.5Z" stroke="#FBAE3C" fill="none" stroke-width="2"></path></g><g transform="translate(684 494)"><path d="M0 -66L57.2 -33L57.2 33L0 66L-57.2 33L-57.2 -33Z" stroke="#FBAE3C" fill="none" stroke-width="2"></path></g><g transform="translate(824 357)"><path d="M0 -69L59.8 -34.5L59.8 34.5L0 69L-59.8 34.5L-59.8 -34.5Z" stroke="#FBAE3C" fill="none" stroke-width="2"></path></g><g transform="translate(103 529)"><path d="M0 -78L67.5 -39L67.5 39L0 78L-67.5 39L-67.5 -39Z" stroke="#FBAE3C" fill="none" stroke-width="2"></path></g></g></svg>