<svg id="visual" viewBox="0 0 900 600" width="900" height="600" xmlns="http://www.w3.org/2000/svg" xmlns:xlink="http://www.w3.org/1999/xlink" version="1.1"><rect x="0" y="0" width="900" height="600" fill="#001122"></rect><path d="M0 499L16.7 506.7C33.3 514.3 66.7 529.7 100 529.7C133.3 529.7 166.7 514.3 200 511.2C233.3 508 266.7 517 300 523.7C333.3 530.3 366.7 534.7 400 534C433.3 533.3 466.7 527.7 500 527.3C533.3 527 566.7 532 600 525.3C633.3 518.7 666.7 500.3 700 498.5C733.3 496.7 766.7 511.3 800 515.7C833.3 520 866.7 514 883.3 511L900 508L900 601L883.3 601C866.7 601 833.3 601 800 601C766.7 601 733.3 601 700 601C666.7 601 633.3 601 600 601C566.7 601 533.3 601 500 601C466.7 601 433.3 601 400 601C366.7 601 333.3 601 300 601C266.7 601 233.3 601 200 601C166.7 601 133.3 601 100 601C66.7 601 33.3 601 16.7 601L0 601Z" fill="#FBAE3C" stroke-linecap="round" stroke-linejoin="miter"></path></svg>